{"glyphs":{"0":{"ha":769,"x_min":82,"x_max":783,"o":"m 421 958 q 283 824 349 951 q 215 494 218 697 q 236 312 214 400 q 293 165 258 224 q 368 70 328 106 q 443 35 408 35 q 581 164 515 36 q 647 496 647 292 q 577 831 647 703 q 428 957 507 958 q 421 958 424 957 m 400 1015 q 436 1019 403 1017 q 692 874 603 1021 q 783 500 782 728 q 679 128 785 278 q 433 -19 574 -22 q 178 126 279 -18 q 82 513 78 269 q 117 739 85 633 q 222 924 149 844 q 400 1015 296 1003 z "},"1":{"ha":378,"x_min":47,"x_max":393,"o":"m 144 139 l 144 867 q 124 942 144 915 q 47 971 103 968 l 49 997 l 289 999 q 289 861 290 921 l 289 151 q 315 59 292 88 q 389 29 338 31 l 393 -3 l 53 -1 l 53 25 q 128 49 113 28 q 144 139 143 71 z "},"2":{"ha":681,"x_min":31,"x_max":696,"o":"m 58 743 q 63 780 60 757 q 86 854 67 803 q 135 936 106 906 q 264 1013 190 992 q 397 1026 338 1033 q 504 996 457 1019 q 650 797 626 933 q 583 510 674 660 q 447 333 533 426 q 299 186 360 239 l 238 133 q 547 133 422 132 q 615 149 585 133 q 657 179 646 164 l 668 194 l 696 194 l 626 0 l 31 0 l 31 29 q 85 78 51 47 q 205 200 119 110 q 353 373 290 290 q 463 557 417 456 q 496 731 508 658 q 423 857 481 815 q 275 888 365 899 q 199 865 233 882 q 147 828 165 849 q 115 788 128 808 q 97 756 101 768 l 93 742 l 58 743 z "},"3":{"ha":624,"x_min":71,"x_max":638,"o":"m 71 789 q 80 810 74 797 q 108 858 86 824 q 153 919 129 892 q 216 973 178 947 q 294 1006 254 999 q 483 976 406 1024 q 572 842 561 928 q 567 749 579 794 q 532 674 554 704 q 486 622 510 644 q 444 589 463 599 l 428 578 q 451 569 436 575 q 503 542 465 564 q 568 494 540 521 q 618 419 596 467 q 638 314 640 371 q 602 169 635 232 q 519 72 569 107 q 421 19 468 38 q 325 -8 374 0 q 249 -15 286 -15 q 111 21 172 -17 l 79 274 l 115 272 q 133 205 126 228 q 154 146 139 182 q 186 92 169 110 q 232 60 203 74 q 299 46 261 46 q 428 117 374 56 q 469 281 482 179 q 435 374 463 333 q 372 434 407 414 q 302 467 336 454 q 244 483 268 481 l 221 486 l 221 506 q 245 515 231 508 q 298 543 260 521 q 364 592 336 565 q 411 667 392 619 q 424 767 431 714 q 371 856 417 819 q 272 883 325 893 q 180 847 221 874 q 124 800 139 821 l 108 778 l 71 789 z "},"4":{"ha":632,"x_min":18,"x_max":646,"o":"m 397 736 l 119 340 q 397 339 304 340 l 397 736 m 542 339 l 646 339 l 644 240 l 542 240 l 542 156 q 567 63 544 92 q 642 33 590 35 l 646 1 l 304 3 l 304 29 q 380 53 364 32 q 396 143 396 75 q 397 192 396 160 q 397 242 397 225 l 19 243 l 18 332 l 397 865 l 397 874 q 376 948 397 921 q 300 978 356 975 l 301 1004 l 640 1006 l 643 975 q 565 946 588 974 q 542 868 543 918 l 542 339 z "},"5":{"ha":696,"x_min":115,"x_max":710,"o":"m 650 875 l 338 874 l 246 688 q 279 690 258 689 q 359 685 300 692 q 469 660 418 678 q 577 594 519 642 q 668 478 635 547 l 672 469 q 703 332 699 413 q 672 167 707 242 q 578 48 638 93 q 451 -22 519 3 q 315 -47 383 -46 l 304 -47 q 154 -8 224 -49 l 118 276 l 158 275 q 179 198 172 222 q 202 134 186 174 q 240 72 218 94 q 292 36 261 49 q 352 30 318 29 q 421 51 386 31 q 483 99 456 71 q 524 177 510 128 q 532 285 539 226 q 424 496 518 410 q 299 547 376 535 q 169 553 222 560 l 115 544 l 339 1006 l 710 1004 l 650 875 z "},"6":{"ha":668,"x_min":58,"x_max":682,"o":"m 231 481 q 221 363 224 428 q 238 211 221 282 q 293 91 256 140 q 383 40 331 42 q 498 99 460 38 q 535 268 536 160 q 418 525 532 482 q 231 481 340 554 m 663 1008 l 661 960 q 642 958 654 960 q 594 945 631 956 q 524 919 558 935 q 447 874 490 904 q 369 806 404 844 q 250 569 292 717 q 438 617 357 619 q 556 583 504 615 q 635 501 608 550 q 674 403 661 453 q 682 313 686 354 q 547 49 668 143 q 403 -12 482 -3 q 250 13 325 -22 q 58 364 83 90 q 100 613 46 488 q 250 838 154 739 q 449 971 338 928 q 663 1008 561 1014 z "},"7":{"ha":878,"x_min":82,"x_max":892,"o":"m 404 163 q 376 111 385 129 q 368 73 368 93 q 390 44 368 53 q 458 36 413 36 l 454 0 l 82 0 l 82 36 l 93 38 q 112 40 104 39 q 133 44 119 42 q 158 53 147 47 q 183 66 169 58 q 209 85 196 74 q 233 113 222 97 q 239 119 238 117 q 649 854 575 739 q 656 881 663 872 q 638 891 650 889 q 600 893 626 893 q 588 893 592 893 l 585 893 l 531 893 l 289 890 q 217 858 244 888 q 186 800 190 828 l 181 771 l 138 771 q 159 872 150 815 q 172 964 168 929 l 175 999 q 476 997 275 997 q 779 996 678 997 q 837 997 799 996 q 892 997 875 997 l 892 968 q 428 207 853 947 q 404 163 408 169 z "},"8":{"ha":693,"x_min":106,"x_max":707,"o":"m 414 585 q 540 810 550 694 q 497 930 533 893 q 376 965 461 967 q 274 928 307 964 q 246 811 242 892 q 300 700 247 763 q 414 585 353 638 m 465 551 q 523 508 490 535 q 601 438 556 482 q 677 338 647 393 q 707 231 707 282 q 633 45 707 122 q 438 -51 558 -32 q 333 -46 389 -58 q 225 -2 276 -33 q 140 90 174 29 q 110 226 107 150 q 303 494 113 351 q 106 771 108 633 q 164 944 101 878 q 346 1029 226 1011 q 416 1031 376 1031 q 499 1015 456 1031 q 577 975 542 999 q 636 904 613 951 q 660 796 660 857 q 465 551 661 686 m 351 465 q 244 214 249 354 q 285 70 242 126 q 404 8 329 14 q 526 54 483 3 q 571 197 569 106 q 522 298 571 236 q 433 396 474 360 q 351 465 393 432 z "},"9":{"ha":660,"x_min":47,"x_max":672,"o":"m 500 504 q 508 621 508 561 q 465 844 508 747 q 344 943 421 940 q 231 884 269 946 q 194 714 193 822 q 314 458 197 500 q 500 504 392 429 m 72 -26 l 72 22 q 92 24 79 22 q 140 37 104 26 q 209 63 175 47 q 287 108 243 78 q 364 178 331 139 q 482 414 442 268 q 294 365 376 364 q 176 399 228 367 q 97 481 124 432 q 57 578 69 529 q 47 669 44 628 q 181 933 61 838 q 323 996 244 986 q 478 971 401 1006 q 672 622 644 894 q 631 371 685 497 q 483 146 578 244 q 285 12 396 56 q 72 -26 174 -32 z "}," ":{"ha":417,"x_min":0,"x_max":0,"o":""},"!":{"ha":389,"x_min":61,"x_max":403,"o":"m 219 247 q 157 844 161 783 q 61 969 151 965 l 63 997 l 401 997 l 403 968 q 356 958 374 967 q 330 933 339 950 q 318 900 321 915 q 314 857 315 885 l 243 247 l 219 247 m 129 58 q 187 99 169 79 q 219 161 204 119 l 243 161 q 276 98 263 115 q 332 61 290 81 l 332 42 q 274 1 292 21 q 240 -58 257 -18 l 221 -58 q 191 3 210 -18 q 129 44 172 24 l 129 58 z "},"\"":{"ha":574,"x_min":21,"x_max":589,"o":"m 142 547 q 93 828 103 756 q 91 843 93 831 q 89 859 89 856 q 87 873 89 863 q 83 888 85 883 q 78 900 82 892 q 72 913 75 908 q 63 922 68 917 q 52 931 58 928 q 38 935 46 933 q 21 939 31 938 l 22 965 l 292 967 l 293 936 q 270 933 281 936 q 253 923 260 931 q 242 910 246 915 q 234 892 238 906 q 229 874 231 879 q 226 851 228 868 q 222 826 224 833 l 172 546 l 142 547 m 436 549 q 389 831 403 758 q 385 855 388 836 q 380 881 382 874 q 373 901 378 888 q 362 919 368 914 q 344 929 356 924 q 318 936 333 935 l 318 968 l 588 968 l 589 939 q 563 933 574 939 q 544 923 551 928 q 533 903 538 918 q 526 883 528 889 q 522 856 525 878 q 518 828 519 833 l 468 549 l 436 549 z "},"#":{"ha":661,"x_min":24,"x_max":675,"o":"m 474 567 l 350 567 l 275 567 l 251 451 l 232 363 l 349 363 q 429 364 385 364 l 453 468 l 474 567 m 24 363 l 31 363 l 51 363 l 125 363 l 142 363 l 164 469 l 185 567 l 126 567 l 51 567 l 32 567 l 24 567 l 24 653 l 31 653 q 40 653 35 653 q 51 654 44 654 l 125 654 l 203 654 l 233 797 q 257 906 247 861 q 263 936 260 924 q 265 946 265 944 l 353 928 q 350 917 351 926 q 343 888 347 906 q 321 779 333 842 l 294 654 l 350 654 l 492 654 l 522 796 q 544 904 535 860 q 551 935 549 922 q 554 946 553 943 l 639 928 q 636 917 639 925 q 631 886 635 904 q 607 778 621 842 l 581 656 l 647 656 l 668 656 l 675 656 l 675 568 l 668 568 l 647 568 l 574 568 q 568 567 572 568 q 563 567 564 567 l 538 450 l 519 364 l 572 364 l 646 364 l 667 364 l 674 364 l 675 276 l 667 276 l 646 276 l 572 276 l 501 276 l 468 122 q 446 14 454 60 q 439 -15 442 -4 q 436 -26 438 -25 l 351 -8 q 353 3 351 -7 q 360 33 356 14 q 382 140 369 78 l 411 276 q 349 275 374 276 l 214 275 l 181 124 q 158 15 168 60 q 151 -15 154 -3 q 150 -26 150 -24 l 63 -7 q 65 3 63 -6 q 71 33 68 15 q 94 142 81 78 l 122 275 l 51 275 l 31 275 l 24 275 l 24 363 z "},"$":{"ha":613,"x_min":86,"x_max":628,"o":"m 332 683 l 332 946 q 261 831 263 926 q 332 683 258 750 m 410 361 l 410 100 q 471 225 472 138 q 410 361 471 293 m 411 1154 l 411 1150 l 411 1139 l 411 1097 l 411 1024 q 458 1010 426 1021 q 502 998 476 1003 q 544 992 528 993 l 563 989 l 594 786 l 563 786 q 557 812 561 796 q 533 862 553 828 q 483 914 513 896 q 411 944 453 935 l 411 622 q 488 562 460 588 q 553 491 517 536 q 608 385 590 446 q 628 250 626 325 q 574 103 629 175 q 438 1 518 31 q 410 -6 422 -4 l 410 -124 l 410 -165 l 410 -176 l 410 -181 l 331 -181 l 331 -176 l 331 -165 l 331 -122 l 331 -12 q 118 47 210 -8 l 86 300 l 122 299 q 140 230 133 253 q 162 170 146 207 q 196 116 178 133 q 244 85 214 99 q 315 72 275 71 q 331 74 321 74 l 331 432 q 188 563 224 519 q 101 782 106 660 q 131 915 99 854 q 222 1010 163 975 q 332 1036 271 1036 l 332 1097 l 332 1139 l 332 1150 l 332 1154 l 411 1154 z "},"%":{"ha":1092,"x_min":50,"x_max":1106,"o":"m 906 -39 q 778 26 833 -36 q 717 200 722 89 q 769 388 711 318 q 910 458 826 458 l 915 458 l 918 458 q 1050 392 994 460 q 1106 213 1106 325 q 1047 24 1106 88 q 908 -39 988 -39 l 906 -39 m 906 424 q 840 347 861 415 q 822 203 818 279 q 892 -7 829 17 q 914 -10 906 -10 q 959 14 940 -8 q 986 72 978 36 q 997 140 994 108 q 1000 203 1000 172 q 915 424 993 424 l 906 424 m 239 443 q 111 507 167 444 q 50 681 56 569 q 101 869 44 799 q 242 939 158 940 l 247 939 l 250 939 q 383 873 326 940 q 439 693 439 806 q 380 506 439 569 q 240 443 321 443 l 239 443 m 238 906 q 172 828 193 896 q 154 683 151 761 q 156 642 156 653 q 160 603 157 632 q 168 559 164 574 q 179 524 172 544 q 197 492 186 503 q 224 475 208 481 q 247 472 236 471 q 292 496 274 474 q 319 553 311 518 q 329 621 326 589 q 332 683 332 653 q 247 906 328 904 l 238 906 m 201 -1 l 204 1 q 210 10 206 6 q 232 42 218 24 l 310 156 l 546 501 q 782 846 675 689 q 860 960 828 913 q 882 992 874 979 q 888 1000 886 997 q 890 1003 889 1003 l 981 942 q 978 939 981 940 q 972 931 976 935 q 951 899 964 917 q 872 785 918 851 q 636 439 765 628 l 400 94 q 322 -19 354 28 q 300 -51 308 -39 q 294 -60 297 -57 l 293 -62 l 201 -1 z "},"&":{"ha":1107,"x_min":33,"x_max":1121,"o":"m 474 619 q 647 801 628 697 q 633 923 661 878 q 546 972 604 968 q 450 938 494 976 q 410 825 406 900 q 474 619 414 765 m 582 151 q 388 443 474 279 q 383 453 385 449 q 360 497 375 465 q 255 406 297 460 q 199 297 213 353 q 196 191 186 242 q 249 103 206 140 q 361 56 293 67 q 582 151 449 42 m 71 60 q 34 167 36 104 q 60 298 32 231 q 160 434 89 365 q 335 551 232 503 q 278 769 282 676 q 335 931 275 864 q 499 1013 394 997 q 558 1016 525 1014 q 626 1006 592 1018 q 687 973 660 993 q 728 909 714 953 q 738 804 743 865 q 655 668 729 728 q 494 571 581 608 q 513 532 511 535 l 522 513 q 689 257 581 389 q 819 485 797 383 q 822 533 821 506 q 805 583 822 560 q 756 607 788 606 l 757 636 q 1068 636 935 632 l 1068 608 q 1003 594 1028 606 q 966 568 978 582 q 926 515 954 554 q 890 454 914 497 q 827 350 867 411 q 725 215 788 289 q 889 89 818 113 q 1016 86 975 58 q 1083 186 1057 114 l 1121 160 q 1108 119 1118 142 q 1078 63 1099 96 q 1017 3 1057 31 q 922 -36 976 -24 q 621 107 786 -65 q 317 -41 471 -26 q 71 60 164 -56 z "},"'":{"ha":278,"x_min":21,"x_max":293,"o":"m 142 547 q 93 828 103 756 q 91 843 93 831 q 89 859 89 856 q 87 873 89 863 q 83 888 85 883 q 78 900 82 892 q 72 913 75 908 q 63 922 68 917 q 52 931 58 928 q 38 935 46 933 q 21 939 31 938 l 22 965 l 292 967 l 293 936 q 270 933 281 936 q 253 923 260 931 q 242 910 246 915 q 234 892 238 906 q 229 874 231 879 q 226 851 228 868 q 222 826 224 833 l 172 546 l 142 547 z "},"(":{"ha":447,"x_min":53,"x_max":463,"o":"m 460 1058 l 458 1025 q 256 775 317 951 q 197 374 196 599 q 460 -262 201 -124 l 463 -301 q 175 -35 297 -228 q 53 383 53 157 q 170 794 54 611 q 460 1058 286 978 z "},")":{"ha":439,"x_min":43,"x_max":454,"o":"m 46 1056 q 337 790 219 975 q 454 379 454 606 q 332 -38 454 154 q 43 -304 210 -231 l 44 -267 q 308 369 304 -128 q 250 772 311 594 q 46 1022 189 949 l 46 1056 z "},"*":{"ha":654,"x_min":33,"x_max":669,"o":"m 375 638 q 390 560 381 610 q 401 496 399 510 q 405 476 403 492 q 408 454 407 460 q 415 438 410 449 q 424 424 419 428 q 439 415 429 419 q 461 410 449 410 l 461 383 l 242 381 l 240 406 q 262 410 253 406 q 276 419 271 415 q 285 435 281 424 q 290 451 289 446 q 294 474 292 457 q 297 496 296 490 q 318 622 307 551 q 207 544 278 594 q 190 532 201 540 q 173 519 178 524 q 160 508 168 515 q 151 493 153 500 q 149 476 149 486 q 154 454 150 465 l 131 443 l 36 640 l 57 653 q 71 635 63 642 q 85 626 79 629 q 103 624 92 624 q 120 626 114 625 q 142 633 126 628 q 164 639 157 638 q 224 656 167 639 q 313 681 282 672 q 228 709 283 690 q 160 732 172 728 q 137 740 156 733 q 113 747 118 746 q 94 747 107 747 q 72 741 81 747 q 56 722 64 735 l 33 733 l 138 926 l 160 917 q 153 899 154 907 q 153 883 151 890 q 158 870 156 875 q 167 858 160 865 q 179 847 175 850 q 195 835 183 843 q 211 822 207 826 q 262 782 224 813 q 319 736 300 751 q 296 874 301 844 q 292 894 294 879 q 289 915 290 910 q 283 931 288 921 q 274 947 279 942 q 259 956 268 951 q 238 961 250 960 l 238 986 l 457 986 l 458 963 q 440 960 447 963 q 426 951 432 957 q 416 942 419 946 q 410 927 413 938 q 406 911 407 917 q 403 892 406 906 q 400 872 401 878 q 388 801 397 856 q 374 719 378 747 q 489 821 414 754 q 505 834 493 824 q 520 849 517 844 q 531 862 524 853 q 539 877 538 871 q 539 894 540 883 q 532 915 538 904 l 554 929 l 669 743 l 649 729 q 632 748 640 742 q 611 753 624 754 q 592 751 599 753 q 566 742 585 750 q 542 732 547 735 q 480 707 525 725 q 417 682 435 689 q 533 636 472 658 q 552 628 538 635 q 572 621 567 622 q 589 617 578 619 q 606 617 600 615 q 621 625 613 619 q 636 640 629 631 l 658 628 l 546 440 l 524 451 q 531 472 529 463 q 531 488 532 482 q 523 504 531 494 q 512 517 515 514 q 495 533 508 521 q 478 547 482 544 q 430 589 465 557 q 375 638 394 621 z "},"+":{"ha":747,"x_min":25,"x_max":761,"o":"m 25 501 l 33 501 q 57 500 43 501 l 140 500 l 353 500 l 353 824 l 439 825 q 440 500 440 717 q 646 499 546 500 l 729 499 l 753 499 l 761 499 l 761 411 l 753 411 l 729 411 l 646 411 q 440 413 546 413 q 442 93 440 199 l 353 93 l 353 413 l 140 413 l 57 413 q 33 414 42 414 l 25 414 l 25 501 z "},",":{"ha":283,"x_min":25,"x_max":297,"o":"m 146 -289 q 97 -8 107 -79 q 92 32 94 21 q 83 63 90 43 q 62 92 76 83 q 25 103 47 101 l 26 131 l 296 131 l 297 101 q 274 99 285 101 q 257 88 264 96 q 246 76 250 81 q 238 58 242 71 q 233 38 235 44 q 230 15 232 32 q 226 -10 228 -3 l 178 -289 l 146 -289 z "},"-":{"ha":418,"x_min":25,"x_max":433,"o":"m 25 360 l 29 360 l 42 360 q 62 359 50 360 q 89 358 74 358 l 229 358 l 369 358 l 415 358 l 428 358 l 433 358 l 432 271 l 428 271 l 415 271 l 369 271 l 229 271 l 89 271 q 62 272 74 271 q 42 272 50 272 l 29 272 l 25 272 l 25 360 z "},".":{"ha":258,"x_min":71,"x_max":274,"o":"m 71 61 q 128 103 110 83 q 161 165 146 124 l 183 165 q 217 102 203 119 q 274 65 232 85 l 272 46 q 215 4 232 24 q 182 -56 197 -15 l 161 -54 q 132 7 150 -14 q 71 47 114 28 l 71 61 z "},"/":{"ha":432,"x_min":-3,"x_max":447,"o":"m -3 -4 l 1 7 l 13 40 l 54 158 q 181 517 111 322 q 307 875 250 713 q 349 993 332 944 l 360 1026 q 364 1039 364 1036 l 447 1010 q 443 997 446 1007 q 431 964 439 985 l 389 846 q 263 488 332 683 q 136 129 194 293 q 94 11 113 60 l 83 -22 q 79 -33 81 -32 l -3 -4 z "},":":{"ha":260,"x_min":71,"x_max":275,"o":"m 71 61 q 128 103 110 83 q 161 165 146 124 l 183 165 q 217 102 203 119 q 274 65 232 85 l 272 46 q 215 4 232 24 q 182 -56 197 -15 l 161 -54 q 132 7 150 -14 q 71 47 114 28 l 71 61 m 71 574 q 129 615 111 594 q 163 676 147 635 l 185 676 q 218 613 203 631 q 275 576 233 596 l 274 557 q 217 517 233 536 q 183 457 200 497 l 163 457 q 133 518 151 497 q 72 558 114 539 l 71 574 z "},";":{"ha":318,"x_min":61,"x_max":333,"o":"m 88 576 q 145 617 128 597 q 178 679 163 638 l 201 681 q 235 617 221 635 q 292 579 250 599 l 290 560 q 233 519 250 539 q 200 460 215 500 l 179 460 q 149 522 168 501 q 88 563 131 543 l 88 576 m 182 -294 q 133 -14 143 -86 q 131 1 133 -11 q 129 17 129 14 q 127 31 129 21 q 124 46 125 42 q 119 58 122 50 q 112 71 115 67 q 103 81 108 75 q 92 89 99 86 q 78 94 86 92 q 61 97 71 96 l 63 124 l 332 124 l 333 94 q 310 92 321 94 q 293 81 300 89 q 282 69 286 74 q 274 51 278 64 q 269 31 271 38 q 266 8 268 25 q 263 -17 264 -10 l 213 -296 l 182 -294 z "},"<":{"ha":746,"x_min":8,"x_max":761,"o":"m 760 819 l 760 693 l 226 461 l 760 225 l 761 93 l 8 424 l 8 494 l 760 819 z "},"=":{"ha":747,"x_min":25,"x_max":761,"o":"m 25 608 l 33 608 l 57 608 l 140 608 q 393 607 256 608 l 646 607 l 729 607 l 753 607 l 761 607 l 761 519 l 753 519 l 729 519 l 646 519 l 393 519 q 140 521 254 521 l 57 521 l 33 521 l 25 521 l 25 608 m 25 397 l 33 397 l 57 397 l 140 397 q 393 396 256 396 l 646 396 l 729 396 l 753 396 l 761 396 l 761 308 l 753 308 l 729 308 l 646 308 l 393 308 q 140 310 254 308 l 57 310 l 33 310 l 25 310 l 25 397 z "},">":{"ha":742,"x_min":8,"x_max":757,"o":"m 10 819 l 756 494 l 757 424 l 8 93 l 10 225 l 539 461 l 10 693 l 10 819 z "},"?":{"ha":575,"x_min":33,"x_max":590,"o":"m 194 47 q 252 90 235 69 q 285 151 269 110 l 308 151 q 342 88 328 106 q 399 50 357 69 l 397 31 q 340 -10 357 10 q 307 -69 324 -29 l 286 -69 q 256 -7 275 -28 q 194 33 238 14 l 194 47 m 169 768 q 175 722 182 749 q 139 685 168 696 q 85 688 111 675 q 46 725 58 700 q 33 813 31 767 q 70 906 36 860 q 161 978 104 953 q 309 1007 233 1010 q 447 980 385 1004 q 550 902 510 956 q 590 779 590 849 q 549 633 590 704 q 440 490 507 563 q 361 399 374 418 q 328 326 342 371 q 311 251 315 282 l 308 221 l 279 222 q 289 397 267 325 q 338 495 299 428 q 409 635 378 563 q 440 774 440 708 q 401 885 439 833 q 300 940 364 936 q 147 863 157 950 q 169 768 142 821 z "},"@":{"ha":1253,"x_min":50,"x_max":1267,"o":"m 803 485 q 752 609 804 579 q 643 590 700 639 q 503 401 560 522 q 442 204 447 281 q 467 124 439 147 q 535 110 494 100 q 613 153 576 119 q 713 273 672 206 q 803 485 754 340 m 828 558 q 840 597 832 571 q 851 636 847 624 l 954 646 q 838 247 881 393 q 831 94 807 136 q 922 83 854 53 q 1058 230 994 114 q 1126 488 1122 346 q 1003 801 1132 683 q 686 904 875 918 q 306 732 444 886 q 149 335 167 578 q 287 -66 131 86 q 685 -217 443 -218 q 1014 -122 885 -217 q 1204 115 1143 -28 l 1267 121 q 1050 -174 1215 -51 q 675 -293 885 -296 q 219 -122 393 -289 q 50 314 44 46 q 109 583 53 458 q 255 791 165 708 q 453 922 344 874 q 671 976 561 971 q 905 941 799 983 q 1076 826 1011 899 q 1175 661 1142 753 q 1204 476 1208 569 q 1074 142 1194 278 q 786 21 954 7 q 721 73 736 25 q 715 167 706 121 l 725 211 q 444 21 532 -18 q 414 424 242 107 q 586 614 486 556 q 743 653 686 672 q 828 558 792 636 z "},"A":{"ha":864,"x_min":51,"x_max":878,"o":"m 325 588 q 601 589 510 588 q 600 601 601 597 q 596 628 599 611 q 546 777 578 710 q 490 871 514 844 l 467 897 q 465 896 467 896 q 328 606 356 778 q 326 597 328 603 q 325 588 325 590 m 878 32 l 878 -1 l 538 -1 l 540 31 q 583 38 569 33 q 609 61 597 43 q 624 114 621 79 l 624 119 q 626 199 626 169 q 614 469 626 300 q 463 470 564 469 q 310 471 361 471 q 296 125 293 313 q 299 83 296 106 q 339 35 308 44 q 378 31 351 33 l 378 10 l 378 0 l 378 -1 l 313 0 l 51 0 l 53 26 q 119 51 101 28 q 139 146 138 75 q 226 681 149 485 q 229 686 226 683 q 284 803 251 749 q 345 892 317 858 q 403 954 374 926 q 449 992 433 982 q 472 1007 464 1003 l 474 1008 q 502 988 485 1001 q 566 922 519 975 q 647 804 613 869 q 713 668 692 733 q 786 147 768 486 q 813 58 790 82 q 878 32 836 33 z "},"B":{"ha":747,"x_min":68,"x_max":758,"o":"m 314 904 q 311 869 311 882 l 311 607 q 504 644 428 575 q 562 774 565 697 q 489 890 558 850 q 399 918 447 915 q 314 904 350 921 m 311 465 l 311 154 q 313 147 313 151 q 361 131 331 139 q 453 131 392 124 q 557 179 514 139 q 619 320 622 238 q 540 447 617 403 q 311 465 483 482 m 165 143 l 167 875 q 146 949 167 922 q 68 981 125 976 l 69 1007 l 401 1007 l 410 1007 q 631 944 551 1013 q 689 726 710 876 q 601 558 671 611 q 758 269 786 497 q 710 127 749 192 q 614 38 671 63 q 374 0 526 -3 l 74 0 l 74 28 q 149 53 133 31 q 165 143 165 75 z "},"C":{"ha":678,"x_min":36,"x_max":693,"o":"m 639 728 q 638 750 639 736 q 625 799 636 764 q 594 858 614 833 q 532 898 575 882 q 429 906 489 914 q 271 776 335 892 q 207 515 207 660 q 235 327 207 419 q 322 168 264 235 q 453 94 379 101 q 534 112 497 90 q 590 167 571 133 q 622 236 610 201 q 639 296 635 271 l 643 321 l 681 318 l 690 93 q 644 61 678 86 q 582 19 610 36 q 503 -11 554 1 q 393 -18 451 -24 q 140 144 246 -3 q 36 513 33 292 q 140 854 39 707 q 386 1018 240 1001 q 497 1015 447 1025 q 574 990 547 1006 q 633 958 600 975 q 693 938 665 942 l 674 729 l 639 728 z "},"D":{"ha":893,"x_min":68,"x_max":908,"o":"m 311 174 q 501 121 364 93 q 672 241 611 143 q 740 482 733 339 q 688 757 749 636 q 511 900 628 878 q 311 883 399 921 q 310 865 310 878 l 311 174 m 410 1003 q 575 997 503 1007 q 758 903 679 982 q 872 723 836 824 q 908 521 908 622 q 865 313 907 422 q 758 128 824 203 q 615 28 693 56 q 413 1 536 0 l 72 -3 l 75 36 q 149 67 133 39 q 165 168 165 96 l 165 869 q 144 945 165 918 q 68 975 124 972 l 69 1001 q 406 1003 182 1003 l 410 1003 z "},"E":{"ha":671,"x_min":56,"x_max":685,"o":"m 58 28 q 138 55 117 29 q 158 147 158 81 l 160 879 q 150 930 160 910 q 126 958 140 950 q 99 970 113 967 q 75 972 85 974 l 65 972 l 64 1001 l 624 1001 q 658 772 633 872 l 619 772 q 618 784 619 776 q 611 812 617 792 q 596 848 606 832 q 567 877 586 864 q 522 892 547 890 l 307 896 l 304 610 l 597 607 l 594 500 l 301 501 q 301 179 300 283 q 357 121 303 122 q 458 121 414 119 q 522 122 501 122 q 562 129 546 122 q 594 158 578 136 q 618 197 610 181 q 647 257 626 213 l 685 260 q 654 133 667 199 q 638 33 642 68 l 633 -1 l 56 -3 l 58 28 z "},"F":{"ha":647,"x_min":63,"x_max":661,"o":"m 63 32 q 142 59 121 33 q 163 151 163 85 l 164 882 q 140 952 164 929 q 93 975 117 975 l 69 974 l 69 1004 l 628 1004 q 661 775 636 875 l 624 775 q 622 787 624 779 q 615 815 621 794 q 600 851 610 835 q 571 880 590 867 q 526 894 551 893 l 311 899 l 308 613 l 600 610 l 599 503 l 306 506 q 306 150 303 268 q 327 56 308 81 q 400 32 346 32 l 400 0 l 67 -1 l 63 32 z "},"G":{"ha":821,"x_min":75,"x_max":836,"o":"m 675 714 q 674 736 675 722 q 661 785 672 750 q 631 844 650 819 q 568 884 611 868 q 465 892 525 900 q 308 763 371 878 q 244 503 244 647 q 325 201 244 332 q 406 138 351 164 q 596 122 506 94 l 600 288 q 588 349 599 324 q 560 386 576 375 q 529 403 544 397 q 503 408 514 408 l 492 407 l 490 456 l 832 458 l 836 413 q 826 413 832 413 q 802 406 819 413 q 771 385 785 399 q 745 342 757 372 q 731 268 733 311 l 726 85 l 726 82 q 711 68 721 76 q 670 39 701 60 q 606 3 639 18 q 526 -23 574 -12 q 431 -29 478 -33 q 178 133 283 -14 q 75 500 72 279 q 178 841 78 694 q 422 1003 278 988 q 557 994 501 1011 q 655 953 613 978 q 729 924 697 928 l 710 715 l 675 714 z "},"H":{"ha":932,"x_min":46,"x_max":947,"o":"m 143 142 l 144 871 q 123 945 144 918 q 46 975 101 972 l 47 1003 l 388 1003 l 389 974 q 311 944 333 972 q 288 865 289 915 l 288 588 q 699 589 561 588 l 699 872 q 678 947 699 921 q 601 976 657 974 l 603 1003 l 942 1004 l 944 974 q 867 944 889 972 q 843 867 844 917 l 843 154 q 869 62 846 90 q 943 32 892 33 l 947 0 l 606 1 l 606 28 q 681 52 665 31 q 699 142 697 74 l 699 469 l 289 471 l 289 153 q 314 60 292 89 q 389 31 336 32 l 392 -1 l 51 0 l 51 26 q 126 52 111 31 q 143 142 142 74 z "},"I":{"ha":378,"x_min":46,"x_max":392,"o":"m 143 142 l 144 871 q 123 945 144 918 q 46 975 101 972 l 47 1003 l 388 1003 l 389 974 q 311 944 333 972 q 288 865 289 915 l 289 153 q 314 60 292 89 q 389 31 336 32 l 392 -1 l 51 0 l 51 26 q 126 52 111 31 q 143 142 142 74 z "},"J":{"ha":749,"x_min":4,"x_max":764,"o":"m 663 353 q 565 -26 664 117 q 313 -190 465 -172 q 215 -185 264 -196 q 129 -157 165 -175 q 63 -120 93 -139 q 19 -87 33 -101 l 4 -74 l 15 161 l 54 164 q 56 135 54 153 q 69 75 57 118 q 99 0 81 32 q 158 -56 118 -32 q 251 -72 197 -79 q 378 -33 329 -62 q 464 72 428 -4 q 510 278 500 149 l 506 864 q 484 942 506 914 q 403 974 463 969 l 404 1001 l 761 1003 l 764 971 q 682 940 706 969 q 657 858 658 910 q 660 406 658 579 q 662 380 661 397 q 663 353 663 363 z "},"K":{"ha":932,"x_min":53,"x_max":946,"o":"m 790 999 l 889 1001 l 889 1000 l 890 1000 l 890 994 l 890 974 l 889 974 l 889 972 l 872 972 q 738 909 828 964 q 581 803 649 854 l 514 753 l 788 154 q 849 54 833 68 q 940 28 874 31 l 946 -3 l 625 -4 l 628 25 q 669 34 656 25 q 681 63 683 43 q 672 103 679 82 q 646 161 664 125 l 401 678 l 303 619 l 301 142 q 319 53 303 75 q 394 28 335 31 l 390 -1 l 53 0 l 57 32 q 131 62 108 33 q 157 154 154 90 l 157 865 q 133 943 156 915 q 56 972 111 971 l 58 1003 l 397 1001 l 399 975 q 322 946 343 972 q 301 871 301 919 l 300 772 l 585 954 q 574 968 599 965 q 551 968 565 968 l 551 999 l 790 999 z "},"L":{"ha":689,"x_min":75,"x_max":703,"o":"m 78 26 q 156 53 135 28 q 176 146 176 79 l 179 876 q 169 926 179 906 q 146 955 160 947 q 118 966 132 963 q 94 969 104 969 l 85 968 l 83 997 l 425 1001 l 422 971 q 412 972 418 972 q 389 969 406 972 q 360 959 372 967 q 336 931 347 951 q 324 879 325 910 l 322 606 l 321 499 q 321 178 319 281 q 375 119 321 122 q 476 119 432 118 q 540 121 519 121 q 607 149 585 121 q 665 256 629 176 l 703 258 q 672 132 685 197 q 654 32 658 67 l 650 -3 l 75 -4 l 78 26 z "},"M":{"ha":1410,"x_min":28,"x_max":1425,"o":"m 1425 29 l 1424 1 l 1060 1 l 1061 29 q 1128 55 1110 35 q 1147 147 1146 75 q 1118 607 1153 356 q 1073 769 1107 694 q 1011 875 1039 844 l 983 907 q 972 894 979 903 q 943 858 964 886 q 905 797 922 829 q 869 715 888 765 q 843 610 851 664 q 814 122 808 386 q 827 61 814 81 q 858 38 840 42 q 919 31 876 33 l 919 3 l 763 1 l 538 -1 l 536 28 q 585 31 569 29 q 615 43 600 33 q 636 71 631 53 q 643 121 642 89 q 644 335 646 276 l 625 564 q 617 608 619 594 q 565 773 600 699 q 506 876 531 847 l 479 906 q 447 872 467 894 q 388 773 426 850 q 338 608 349 696 q 307 146 301 360 q 327 53 308 74 q 394 26 346 32 l 394 -1 l 28 -1 l 28 28 q 106 49 82 28 q 132 138 131 71 q 225 690 139 471 q 315 842 253 760 q 425 971 376 924 l 474 1018 q 492 1006 481 1014 q 538 967 504 997 q 603 899 572 936 q 669 797 633 861 q 726 660 704 733 l 726 656 l 732 660 q 789 795 754 732 q 858 897 824 858 q 922 965 892 936 q 969 1006 951 993 l 989 1017 q 1010 1000 997 1011 q 1059 953 1024 989 q 1125 882 1094 918 q 1188 792 1156 846 q 1238 686 1221 738 q 1321 140 1315 444 q 1346 52 1322 74 q 1425 29 1369 31 z "},"N":{"ha":951,"x_min":124,"x_max":965,"o":"m 128 1003 l 367 1004 l 719 774 l 717 872 q 696 947 717 921 q 619 976 675 974 l 621 1004 l 961 1004 l 963 975 q 861 867 864 972 l 863 153 q 887 60 864 89 q 963 31 910 32 l 965 -1 l 624 0 l 624 26 q 699 51 683 29 q 717 142 715 74 l 718 564 l 374 800 l 372 160 q 396 57 375 85 q 481 28 417 29 l 481 0 l 126 -1 l 124 24 q 207 56 183 25 q 232 153 231 88 l 231 888 q 128 975 225 972 l 128 1003 z "},"O":{"ha":953,"x_min":82,"x_max":968,"o":"m 536 910 q 517 908 529 908 q 338 803 421 908 q 250 494 254 699 q 276 322 249 400 q 347 197 304 244 q 440 125 390 150 q 533 100 489 100 q 620 122 576 100 q 704 187 664 143 q 770 311 744 231 q 796 496 796 392 q 716 794 796 689 q 536 910 636 900 m 508 1018 q 518 1019 511 1018 q 529 1019 525 1019 q 858 877 750 1021 q 968 500 965 733 q 835 128 969 278 q 526 -19 701 -22 q 204 126 332 -18 q 82 513 76 269 q 108 690 85 606 q 179 849 132 775 q 311 969 226 924 q 508 1018 396 1015 z "},"P":{"ha":681,"x_min":68,"x_max":694,"o":"m 310 504 q 344 495 322 499 q 411 503 365 492 q 494 549 457 514 q 549 652 533 583 q 547 787 564 721 q 486 879 531 853 q 313 893 399 932 q 308 860 308 876 q 310 504 308 622 m 164 138 l 165 864 q 144 939 165 913 q 68 968 124 965 l 69 996 l 408 996 q 622 922 540 1001 q 694 699 704 842 q 553 468 683 528 q 310 428 444 422 l 310 150 q 335 58 313 86 q 410 28 357 29 l 413 -3 l 74 -1 l 74 24 q 149 49 133 28 q 164 138 164 71 z "},"Q":{"ha":1479,"x_min":69,"x_max":1493,"o":"m 519 913 q 511 912 517 913 q 501 911 506 911 q 324 808 407 913 q 236 501 240 704 q 326 215 233 322 q 518 110 418 108 q 604 131 561 110 q 688 197 647 153 q 753 319 728 240 q 778 503 778 399 q 699 799 778 694 q 519 913 619 903 m 874 215 q 1029 42 915 167 q 1357 -162 1192 -137 q 1424 -165 1396 -168 q 1468 -156 1453 -161 l 1483 -149 l 1493 -179 q 874 35 1225 -326 l 794 114 q 511 -10 671 -10 q 191 135 318 -7 q 69 518 64 278 q 96 694 72 611 q 167 852 119 778 q 298 972 214 926 q 493 1021 382 1017 l 514 1021 q 839 881 732 1024 q 949 507 946 738 q 874 215 950 347 z "},"R":{"ha":1374,"x_min":113,"x_max":1389,"o":"m 353 506 q 387 497 365 500 q 454 504 408 493 q 538 550 500 515 q 597 721 597 603 q 529 879 597 839 q 440 907 488 904 q 356 893 392 910 l 351 860 q 352 682 351 800 q 353 506 353 564 m 208 140 l 210 864 q 189 938 210 911 q 113 968 168 965 l 114 994 l 450 996 q 658 941 585 1001 q 729 750 731 881 q 713 644 728 693 q 676 566 697 596 q 634 515 656 536 q 597 485 613 493 l 583 476 q 933 17 768 199 q 1254 -183 1096 -161 q 1321 -185 1293 -187 q 1364 -175 1349 -182 l 1379 -169 l 1389 -200 q 782 10 1126 -343 q 710 88 744 49 q 646 168 676 128 q 597 234 615 208 q 552 300 579 260 q 518 350 525 340 q 440 425 475 413 q 353 429 406 438 l 353 151 q 378 60 356 88 q 453 31 400 32 l 456 -1 l 117 0 l 117 26 q 192 51 176 29 q 208 140 207 72 z "},"S":{"ha":613,"x_min":86,"x_max":628,"o":"m 563 786 q 557 812 561 796 q 533 862 553 828 q 483 914 513 896 q 426 939 460 929 q 355 949 393 949 q 290 920 317 950 q 261 831 263 890 q 278 749 260 786 q 329 685 297 713 q 400 630 361 657 q 478 569 439 603 q 551 495 518 536 q 605 391 583 454 q 628 250 626 328 q 574 103 629 175 q 438 1 518 31 q 263 -6 349 -22 q 118 47 176 11 l 86 300 l 122 299 q 140 230 133 253 q 162 170 146 207 q 196 116 178 133 q 244 85 214 99 q 315 72 275 71 q 362 80 339 74 q 412 101 385 86 q 456 149 439 117 q 471 225 472 181 q 432 333 469 282 q 342 425 394 383 q 235 513 289 467 q 143 628 182 558 q 101 782 104 697 q 131 915 99 854 q 222 1010 163 975 q 458 1010 313 1061 q 502 998 476 1003 q 544 992 528 993 l 563 989 l 594 786 l 563 786 z "},"T":{"ha":894,"x_min":100,"x_max":908,"o":"m 100 783 l 163 1079 l 186 1083 q 204 1010 190 1022 q 269 997 218 997 q 279 997 276 997 q 783 1000 685 997 q 817 1003 804 1000 q 849 1031 829 1007 q 885 1100 868 1054 l 908 1097 l 840 813 l 813 813 q 801 860 814 846 q 740 876 789 875 l 560 875 q 560 122 558 250 q 584 58 560 81 q 633 33 608 35 l 657 31 l 656 0 l 319 0 l 321 32 q 331 32 325 32 q 354 35 338 32 q 383 47 371 39 q 406 71 396 54 q 417 111 417 88 l 417 875 q 239 876 339 876 q 166 856 186 875 q 131 785 146 838 l 100 783 z "},"U":{"ha":924,"x_min":85,"x_max":938,"o":"m 936 968 q 867 942 886 967 q 847 844 849 917 q 757 293 839 499 l 756 292 q 756 288 756 289 q 697 161 731 221 q 631 65 663 101 q 570 2 599 29 q 525 -36 542 -25 l 508 -47 l 507 -46 q 324 167 403 24 q 256 307 276 240 q 179 843 197 499 q 153 935 176 910 q 86 963 129 961 l 85 997 l 436 997 l 433 964 q 371 944 390 960 q 347 878 351 929 l 347 872 q 345 832 346 860 q 344 790 344 804 q 371 375 347 567 q 374 361 372 369 q 375 347 375 353 q 404 247 386 294 q 440 168 422 199 q 473 115 457 138 q 499 81 489 92 l 508 71 q 510 72 510 71 q 551 119 529 92 q 606 219 572 147 q 653 371 640 292 q 685 867 690 606 q 683 910 685 899 q 642 960 675 949 q 601 964 626 961 l 601 986 l 601 994 l 601 997 q 635 996 613 997 q 668 994 657 994 q 803 995 714 994 q 938 996 892 996 l 936 968 z "},"V":{"ha":1011,"x_min":149,"x_max":1026,"o":"m 150 972 l 149 1006 q 515 1006 357 992 l 521 968 q 444 946 469 969 q 435 867 418 922 l 622 267 q 826 869 761 651 q 746 972 861 979 l 742 1008 q 1025 1004 871 988 l 1026 975 q 983 964 1001 975 q 950 928 964 953 q 929 887 936 903 q 913 842 922 871 l 615 -32 l 569 -32 q 285 860 354 651 q 233 951 261 931 q 150 972 204 971 z "},"W":{"ha":1440,"x_min":17,"x_max":1454,"o":"m 17 969 l 18 999 l 392 997 l 392 969 q 323 943 342 964 q 303 847 304 922 q 332 375 297 635 q 379 209 344 286 q 442 100 414 132 l 471 67 q 503 102 483 79 q 563 204 524 125 q 615 372 601 283 q 646 874 651 603 q 622 950 644 935 q 536 969 600 965 l 538 997 q 697 999 590 999 l 931 1001 l 931 972 q 881 968 896 971 q 849 956 865 965 q 828 928 833 947 q 821 876 822 910 q 819 656 818 715 l 840 419 l 849 374 q 902 204 867 281 q 964 97 938 128 l 990 68 q 1003 81 994 72 q 1033 117 1011 89 q 1074 178 1056 146 q 1110 265 1092 211 q 1136 375 1129 318 q 1167 850 1172 628 q 1147 947 1165 925 q 1078 974 1128 968 l 1076 1001 l 1454 1001 l 1454 972 q 1374 949 1399 971 q 1347 858 1349 928 q 1253 290 1340 519 q 1161 134 1225 218 q 1047 1 1097 50 l 996 -47 q 976 -35 989 -43 q 929 6 964 -26 q 863 76 894 38 q 795 180 832 114 q 735 321 758 246 l 735 325 q 731 322 732 322 q 672 182 707 247 q 601 77 636 117 q 536 8 567 38 q 486 -33 506 -22 l 467 -46 q 445 -28 458 -40 q 394 19 432 -17 q 325 93 357 56 q 260 185 293 131 q 210 293 226 240 q 124 856 129 543 q 98 946 122 924 q 17 969 74 968 z "},"X":{"ha":1039,"x_min":113,"x_max":1054,"o":"m 914 135 q 1054 32 985 32 l 1054 -10 q 657 -7 839 4 l 658 35 q 715 43 692 35 q 747 72 738 51 q 735 129 757 93 q 731 137 733 132 q 726 144 728 142 q 569 393 639 286 q 424 158 453 204 q 406 119 411 136 q 401 86 400 103 q 411 59 401 69 q 444 43 421 49 q 501 38 467 38 l 500 -4 q 138 -8 333 6 l 139 33 q 324 161 238 33 q 326 165 324 163 q 413 305 347 199 q 518 475 479 411 q 388 678 469 550 q 281 844 306 807 q 259 875 272 857 q 203 926 246 893 q 121 964 161 960 l 113 1001 q 533 1000 328 988 l 531 967 q 458 930 483 965 q 456 853 432 894 q 604 613 476 815 q 747 843 607 617 q 751 935 778 903 q 674 967 725 967 l 669 1001 q 1017 1001 882 988 l 1017 958 q 924 933 949 951 q 844 828 900 914 q 656 531 813 778 q 914 135 839 246 z "},"Y":{"ha":951,"x_min":63,"x_max":965,"o":"m 447 521 q 362 649 444 525 q 231 843 279 772 q 210 874 224 856 q 154 926 196 893 q 71 964 113 960 l 63 1000 q 485 1000 269 986 l 482 972 q 408 933 435 972 q 406 853 382 894 q 551 617 456 763 q 699 843 665 792 q 714 910 722 883 q 681 952 706 938 q 624 967 656 967 l 619 1001 q 965 1001 832 988 l 965 958 q 874 933 899 951 q 794 828 850 914 q 594 528 700 683 l 589 136 q 601 49 586 69 q 675 28 615 28 l 675 -3 l 354 -1 l 354 25 q 429 51 414 29 q 446 139 444 72 q 447 331 446 203 q 447 521 447 458 z "},"Z":{"ha":878,"x_min":92,"x_max":892,"o":"m 286 0 q 92 -4 214 0 l 93 31 q 183 142 107 38 q 649 854 528 664 q 656 881 663 872 q 638 891 650 889 q 600 893 626 893 q 588 893 592 893 l 585 893 l 558 893 l 340 890 q 276 858 300 888 q 247 800 251 828 l 243 771 l 204 771 q 224 872 215 815 q 236 964 233 929 l 239 999 q 509 997 329 997 q 779 996 689 996 q 837 997 799 996 q 892 997 875 997 l 892 968 q 356 169 849 943 q 365 131 343 139 q 464 121 388 122 l 632 121 q 694 147 674 122 q 747 240 715 172 q 754 256 751 250 l 790 258 q 760 133 772 199 q 743 33 747 68 l 739 -1 l 286 0 z "},"[":{"ha":401,"x_min":121,"x_max":417,"o":"m 126 1007 l 139 1007 l 171 1007 q 271 1008 217 1008 l 371 1008 l 403 1008 l 415 1008 l 417 931 l 404 931 l 371 931 l 271 931 l 239 931 l 239 814 q 238 390 239 622 q 236 -33 238 160 l 236 -149 l 265 -149 l 365 -149 l 399 -149 l 410 -149 l 411 -226 l 399 -226 l 365 -226 l 265 -226 l 165 -226 l 133 -226 l 121 -226 l 121 -222 l 121 -212 l 121 -192 l 121 -149 l 121 -33 q 122 390 122 160 q 124 815 124 622 l 124 954 l 124 993 l 124 1004 l 124 1007 l 126 1007 z "},"\\":{"ha":426,"x_min":-1,"x_max":440,"o":"m 357 -42 q 354 -29 357 -39 q 342 4 349 -15 q 301 124 325 53 q 178 485 246 288 q 54 846 111 682 q 14 965 31 915 l 3 999 q -1 1010 -1 1008 l 81 1039 q 85 1026 82 1036 q 96 993 89 1013 q 138 874 113 944 q 261 513 193 710 q 385 151 328 315 q 425 32 408 82 q 436 -1 432 13 q 440 -12 440 -11 l 357 -42 z "},"]":{"ha":401,"x_min":121,"x_max":415,"o":"m 121 -149 l 133 -149 l 167 -149 l 267 -149 l 297 -149 q 299 -33 297 -101 l 299 392 q 300 815 300 622 l 300 929 l 271 929 l 171 929 l 139 929 l 126 929 l 126 1007 l 139 1007 l 171 1007 l 271 1007 l 300 1007 l 335 1007 l 369 1007 l 403 1007 l 415 1007 l 415 1004 l 415 993 l 415 954 l 415 929 l 415 814 q 414 390 415 622 l 414 -33 q 413 -172 413 -115 l 413 -211 l 413 -222 l 413 -225 l 413 -226 l 400 -226 l 367 -226 l 267 -226 l 167 -226 l 133 -226 l 121 -226 l 121 -149 z "},"^":{"ha":643,"x_min":15,"x_max":658,"o":"m 658 456 l 546 454 l 336 801 l 132 453 l 15 451 l 300 943 l 364 943 l 658 456 z "},"_":{"ha":610,"x_min":7,"x_max":625,"o":"m 7 -210 l 14 -210 l 33 -210 l 103 -210 l 315 -210 q 528 -211 432 -210 l 599 -211 l 618 -211 l 625 -211 l 625 -299 l 618 -299 l 597 -299 l 528 -299 q 315 -297 432 -297 l 103 -297 l 33 -297 l 14 -297 l 7 -297 l 7 -210 z "},"`":{"ha":317,"x_min":7,"x_max":332,"o":"m 303 599 q 133 826 174 768 q 76 892 96 881 q 18 893 50 907 l 7 917 l 246 1040 l 261 1014 q 242 1000 250 1007 q 232 984 235 993 q 228 968 229 975 q 229 949 226 961 q 233 930 232 936 q 241 907 235 924 q 249 883 247 890 l 332 613 l 303 599 z "},"a":{"ha":664,"x_min":86,"x_max":679,"o":"m 274 354 l 488 354 q 479 431 486 394 q 476 450 479 436 q 441 556 464 508 q 401 622 418 604 l 385 642 l 383 642 q 285 433 306 564 q 274 354 276 383 m 88 18 q 135 35 122 18 q 149 104 147 53 q 211 488 156 344 q 213 489 211 489 l 214 492 q 388 722 265 635 l 389 722 q 419 701 400 715 q 481 632 438 688 q 550 506 524 576 q 560 478 556 493 q 614 106 600 347 q 632 41 615 58 q 679 22 649 24 l 679 -1 l 435 -1 l 436 21 q 468 27 458 24 q 486 43 478 31 q 497 81 494 56 l 497 85 q 498 113 497 93 q 499 142 499 132 q 493 281 499 214 l 267 281 q 263 89 260 192 q 264 58 263 67 q 293 24 269 32 q 306 23 296 24 q 321 22 315 22 l 321 6 l 321 0 l 319 0 l 319 -1 l 274 0 l 86 -1 l 88 18 z "},"b":{"ha":544,"x_min":81,"x_max":557,"o":"m 247 419 q 382 444 328 396 q 422 534 424 482 q 371 615 419 586 q 250 624 308 653 q 247 601 247 610 l 247 419 m 249 101 q 282 90 260 96 q 347 90 304 85 q 418 124 389 96 q 461 221 464 164 q 406 308 458 278 q 247 326 363 336 q 249 107 249 253 l 249 101 m 194 319 q 193 317 192 317 q 194 319 193 318 m 147 99 l 147 604 q 133 656 147 638 q 81 676 119 675 l 81 696 l 317 696 q 469 653 414 700 q 508 501 524 606 q 449 385 497 424 q 557 185 576 342 q 523 88 550 133 q 457 25 496 43 q 286 0 389 -6 l 83 0 l 83 18 q 135 36 125 21 q 147 99 146 51 z "},"c":{"ha":538,"x_min":99,"x_max":551,"o":"m 514 504 q 513 519 514 510 q 505 553 513 529 q 483 594 497 576 q 440 622 469 611 q 369 628 410 633 q 260 538 304 618 q 217 357 217 457 q 264 163 217 253 q 386 67 311 74 q 442 78 417 64 q 481 117 467 93 q 503 164 494 140 q 515 206 513 188 l 518 222 l 543 221 l 551 65 q 510 35 547 63 q 435 -4 474 8 q 346 -11 397 -17 q 170 101 243 0 q 99 356 97 203 q 169 592 100 490 q 340 704 239 694 q 433 698 394 710 q 500 669 471 686 q 551 650 529 653 l 539 506 l 514 504 z "},"d":{"ha":663,"x_min":94,"x_max":676,"o":"m 264 124 q 396 88 300 68 q 515 170 472 103 q 561 338 557 238 q 524 528 567 444 q 403 626 482 611 q 264 615 322 642 q 263 603 263 611 q 264 124 263 283 m 332 699 q 446 694 400 700 q 615 578 553 679 q 676 364 678 476 q 648 219 676 296 q 574 92 619 143 q 474 22 529 42 q 333 4 419 3 l 99 1 l 100 29 q 151 51 140 31 q 163 121 163 71 l 163 607 q 94 679 163 676 l 96 699 l 329 699 l 332 699 z "},"e":{"ha":517,"x_min":96,"x_max":532,"o":"m 97 18 q 152 37 138 19 q 167 101 167 54 l 168 608 q 151 658 168 642 q 119 672 135 674 l 103 672 l 101 693 l 489 693 q 513 533 496 603 l 486 533 q 483 555 486 542 q 463 592 481 568 q 418 617 446 615 l 269 619 l 268 421 l 471 419 l 469 344 l 267 347 q 265 124 265 194 q 304 83 267 83 l 418 83 q 446 88 435 83 q 469 108 457 92 q 485 135 481 125 q 506 178 490 144 l 532 179 q 510 92 519 138 q 499 22 501 47 l 496 -1 l 96 -3 l 97 18 z "},"f":{"ha":504,"x_min":103,"x_max":519,"o":"m 104 22 q 158 41 143 24 q 172 104 172 58 l 174 613 q 158 661 174 646 q 125 675 142 676 l 108 675 l 108 696 l 496 696 q 519 538 501 607 l 492 538 q 491 546 492 540 q 486 565 490 551 q 476 590 482 579 q 456 610 469 601 q 425 621 443 619 l 276 622 l 274 425 l 476 424 l 475 349 l 272 350 q 272 104 269 186 q 288 39 275 56 q 338 22 300 22 l 338 0 l 103 1 l 104 22 z "},"g":{"ha":619,"x_min":106,"x_max":633,"o":"m 522 499 q 522 514 522 504 q 513 548 521 524 q 491 589 504 572 q 447 617 478 606 q 376 622 417 628 q 267 533 311 613 q 224 353 224 453 q 279 143 224 233 q 335 99 296 121 q 467 89 406 69 l 469 203 q 451 264 469 243 q 414 286 432 285 l 394 286 l 394 319 l 631 322 l 633 290 q 615 289 626 290 q 583 263 603 288 q 561 190 564 238 l 558 63 l 558 61 q 531 37 549 51 q 458 1 513 22 q 353 -15 404 -21 q 177 96 250 -6 q 106 350 104 197 q 178 587 108 485 q 347 700 247 689 q 483 676 419 707 q 560 644 546 646 l 546 500 l 522 499 z "},"h":{"ha":685,"x_min":74,"x_max":699,"o":"m 142 97 l 142 604 q 74 676 142 674 l 75 696 l 311 696 l 313 675 q 242 601 244 674 l 242 385 q 526 386 336 386 l 526 606 q 460 678 526 675 l 460 696 l 696 697 l 697 676 q 626 601 629 674 l 628 107 q 697 22 629 24 l 699 0 l 463 1 l 463 19 q 515 36 504 21 q 526 99 526 51 l 526 311 q 242 313 432 313 l 242 107 q 260 42 244 61 q 311 21 275 22 l 314 0 l 78 0 l 78 18 q 130 35 119 21 q 142 97 140 50 z "},"i":{"ha":318,"x_min":92,"x_max":332,"o":"m 160 96 l 160 601 q 145 653 160 635 q 92 675 131 672 l 93 693 l 329 694 l 331 674 q 260 599 263 671 l 261 104 q 278 40 263 60 q 331 18 294 21 l 332 -3 l 96 -3 l 96 17 q 148 33 138 18 q 160 96 158 49 m 143 857 q 182 887 169 872 q 207 933 194 901 l 217 935 q 241 888 229 901 q 281 857 253 874 l 281 850 q 241 816 254 835 q 217 765 228 797 l 206 764 q 142 849 190 822 l 143 857 z "},"j":{"ha":501,"x_min":14,"x_max":517,"o":"m 449 265 q 386 15 450 108 q 218 -93 321 -82 q 117 -79 168 -99 q 39 -39 65 -60 l 14 -17 l 22 139 l 47 142 q 48 132 47 138 q 51 108 49 126 q 59 75 54 90 q 74 41 64 60 q 97 9 83 22 q 131 -11 110 -4 q 178 -15 151 -18 q 297 43 256 -6 q 349 215 339 92 l 346 603 q 278 675 346 672 l 279 694 l 515 694 l 517 674 q 446 599 449 672 q 447 300 447 415 q 449 265 449 290 m 325 856 q 365 887 353 872 q 389 933 376 901 l 399 935 q 424 886 414 900 q 463 857 435 872 l 463 850 q 399 764 418 822 l 388 764 q 367 815 381 796 q 324 849 353 833 l 325 856 z "},"k":{"ha":674,"x_min":67,"x_max":689,"o":"m 581 692 l 649 693 l 649 692 l 650 692 l 649 689 q 649 681 649 686 q 650 674 650 676 l 649 674 q 638 672 642 674 q 543 628 606 667 q 433 556 481 590 l 388 521 l 578 104 q 589 84 582 97 q 598 67 596 71 q 606 53 600 63 q 614 42 611 44 q 622 33 617 39 q 630 26 626 28 q 640 22 633 25 q 652 19 646 19 q 667 17 658 18 q 685 15 675 15 l 689 -6 l 465 -6 l 467 14 q 500 27 493 14 q 501 58 507 40 q 479 108 496 75 l 310 468 l 242 428 l 240 96 q 252 33 242 49 q 304 17 263 18 l 301 -4 l 67 -3 l 69 19 q 139 104 138 21 l 140 599 q 69 674 138 671 l 71 694 l 307 693 l 308 675 q 240 603 240 672 l 239 535 l 438 660 q 418 669 450 671 q 414 669 417 669 l 414 692 l 581 692 z "},"l":{"ha":524,"x_min":103,"x_max":539,"o":"m 104 19 q 159 38 144 21 q 174 103 174 56 l 175 610 q 158 659 175 643 q 125 675 142 675 l 110 674 l 108 693 l 346 696 l 344 675 q 327 675 342 672 q 295 662 313 678 q 276 613 278 646 l 275 422 l 274 347 q 274 125 272 196 q 311 85 274 85 l 426 85 q 463 98 447 85 q 486 124 479 111 q 513 179 493 138 l 539 181 q 517 94 526 139 q 506 25 508 49 l 503 0 l 103 -1 l 104 19 z "},"m":{"ha":1072,"x_min":56,"x_max":1086,"o":"m 1086 19 l 1086 -1 l 817 -1 l 818 19 q 854 27 843 22 q 874 51 865 32 q 882 107 882 69 q 860 446 885 274 q 826 565 851 510 q 781 644 801 621 l 761 667 q 738 642 751 658 q 695 568 724 625 q 657 447 667 511 q 636 89 631 272 q 653 33 638 44 q 714 19 668 22 l 714 -1 l 599 -1 l 432 -3 l 431 18 q 476 23 463 19 q 500 41 490 26 q 510 86 510 56 q 511 244 513 183 l 496 414 q 490 447 493 436 q 453 568 478 514 q 408 644 428 622 l 389 665 q 365 641 379 657 q 322 568 350 625 q 283 446 293 511 q 261 106 258 258 q 276 36 263 51 q 326 17 290 21 l 326 -3 l 56 -3 l 56 18 q 114 34 96 18 q 133 100 132 50 q 201 507 138 347 q 267 619 221 558 q 349 714 313 679 l 385 749 q 399 740 390 746 q 433 710 407 733 q 481 660 458 688 q 529 586 503 633 q 572 485 556 539 l 572 482 q 575 483 574 483 q 617 584 592 538 q 667 659 643 631 q 714 709 692 688 q 750 739 736 731 l 764 747 q 804 713 779 735 q 879 628 829 692 q 949 504 929 565 q 1010 100 1006 328 q 1028 36 1011 51 q 1086 19 1046 21 z "},"n":{"ha":644,"x_min":75,"x_max":658,"o":"m 78 697 l 243 699 l 488 539 l 486 606 q 472 658 486 639 q 419 679 458 676 l 419 697 l 656 699 l 657 678 q 586 603 589 675 l 588 108 q 657 24 589 25 l 658 1 l 422 3 l 422 21 q 474 38 464 22 q 486 100 485 53 l 488 393 l 249 556 l 247 113 q 264 42 250 61 q 322 21 278 22 l 322 3 l 76 0 l 75 18 q 133 41 117 19 q 150 108 149 63 l 150 617 q 78 678 144 678 l 78 697 z "},"o":{"ha":679,"x_min":75,"x_max":693,"o":"m 392 635 q 385 634 390 635 q 378 633 381 633 q 253 561 311 635 q 192 344 194 488 q 255 143 190 218 q 390 69 319 68 q 516 138 458 69 q 574 346 574 207 q 517 555 574 481 q 392 635 461 629 m 372 710 q 388 711 378 711 q 617 612 542 713 q 693 349 692 511 q 601 90 694 194 q 385 -14 508 -15 q 160 87 249 -14 q 75 357 71 188 q 150 602 78 499 q 372 710 222 706 z "},"p":{"ha":503,"x_min":81,"x_max":517,"o":"m 247 353 q 378 385 328 339 q 419 504 419 421 q 371 615 418 588 q 250 624 308 653 q 247 601 247 610 l 247 353 m 147 99 l 147 604 q 133 656 147 638 q 81 676 119 675 l 81 696 l 317 696 q 466 644 410 699 q 517 489 522 589 q 418 328 510 369 q 247 300 346 297 q 249 107 249 235 q 266 42 250 63 q 318 21 282 22 l 319 0 l 83 0 l 83 18 q 135 36 125 21 q 147 99 146 51 z "},"q":{"ha":1022,"x_min":63,"x_max":1038,"o":"m 622 135 q 719 19 685 60 q 943 -119 832 -104 q 990 -120 971 -122 q 1019 -114 1010 -118 l 1031 -110 l 1038 -132 q 613 15 853 -231 q 567 65 588 40 q 372 -14 479 -17 q 147 87 236 -14 q 63 357 58 188 q 81 481 64 422 q 131 592 97 540 q 223 676 164 644 q 361 710 282 708 q 375 711 365 711 q 604 612 529 713 q 681 349 679 511 q 622 135 682 229 m 310 346 q 471 340 389 340 q 547 233 503 294 q 561 346 561 279 q 506 556 561 482 q 379 635 450 629 q 374 634 378 635 q 367 633 369 633 q 241 561 300 635 q 179 344 182 488 q 242 143 178 218 q 378 69 307 68 q 506 142 453 69 q 461 207 488 168 q 429 253 435 246 q 388 297 407 283 q 351 311 368 311 q 311 308 333 311 l 310 346 z "},"r":{"ha":936,"x_min":58,"x_max":950,"o":"m 226 353 q 250 347 236 349 q 297 352 264 344 q 356 383 329 360 q 397 503 397 419 q 349 614 396 586 q 228 624 289 650 q 226 612 228 619 q 225 600 225 604 l 226 353 m 125 97 l 126 603 q 112 655 126 636 q 58 676 97 674 l 60 694 l 294 694 q 439 657 388 699 q 489 524 490 615 q 463 413 489 461 q 413 349 438 365 l 388 332 q 632 10 517 138 q 857 -129 746 -114 q 903 -130 883 -132 q 933 -124 922 -128 l 943 -119 l 950 -142 q 526 6 765 -240 q 463 77 494 39 q 414 139 431 115 q 372 199 397 163 q 342 243 347 235 q 288 295 311 286 q 226 299 264 304 l 226 106 q 244 42 228 61 q 296 19 260 22 l 299 -1 l 61 -1 l 61 17 q 114 35 103 19 q 125 97 125 50 z "},"s":{"ha":417,"x_min":64,"x_max":431,"o":"m 386 538 q 333 625 378 596 q 278 648 310 640 q 215 638 247 656 q 182 567 183 621 q 206 494 181 526 q 267 438 231 463 q 340 383 303 413 q 403 299 376 353 q 431 174 429 246 q 394 74 432 122 q 303 6 356 25 q 184 1 243 -10 q 86 36 125 13 l 64 208 l 89 207 q 104 148 97 168 q 126 101 111 128 q 163 64 140 75 q 219 54 186 53 q 251 59 235 54 q 285 74 267 64 q 314 105 303 83 q 325 157 325 126 q 299 230 324 196 q 238 292 274 264 q 165 352 201 321 q 103 431 129 383 q 74 535 76 478 q 94 625 72 583 q 156 689 117 667 q 317 689 217 722 l 388 675 l 408 538 l 386 538 z "},"t":{"ha":649,"x_min":99,"x_max":663,"o":"m 99 546 l 142 753 l 158 756 q 173 703 163 711 q 224 696 183 696 q 576 697 507 696 q 599 700 590 697 q 622 719 608 703 q 647 768 636 736 l 663 765 l 615 567 l 597 567 q 589 600 597 590 q 546 611 581 610 l 419 611 l 419 85 q 436 40 419 56 q 469 22 453 24 l 488 21 l 486 -1 l 251 0 l 253 22 q 260 22 256 22 q 276 25 264 22 q 296 33 288 28 q 312 49 304 38 q 321 78 319 61 l 319 610 q 196 611 265 611 q 145 597 160 610 q 119 547 131 583 l 99 546 z "},"u":{"ha":668,"x_min":83,"x_max":683,"o":"m 682 679 q 633 662 646 679 q 619 593 621 644 q 556 204 613 349 q 554 201 556 203 q 483 67 526 126 q 411 -14 440 8 l 382 -35 q 379 -33 381 -35 q 251 115 301 25 q 204 214 221 163 q 150 592 164 346 q 132 657 149 639 q 85 675 115 675 l 83 700 l 331 700 l 329 676 q 297 670 307 674 q 279 653 288 667 q 268 615 271 640 l 268 613 q 267 554 267 594 q 285 263 267 403 q 286 253 286 258 q 288 243 286 247 q 324 136 300 185 q 364 68 347 88 l 382 49 l 382 50 q 482 260 461 129 q 506 608 508 419 q 504 639 506 631 q 475 674 497 665 q 461 676 471 675 q 446 676 451 676 l 446 692 l 446 699 l 447 699 l 447 700 l 493 699 l 683 699 l 682 679 z "},"v":{"ha":672,"x_min":68,"x_max":688,"o":"m 69 674 l 68 699 q 326 699 206 688 l 331 671 q 276 656 294 672 q 269 600 258 639 l 403 178 q 547 601 500 449 q 545 660 560 643 q 489 675 531 676 l 486 700 q 686 697 579 686 l 688 676 q 647 659 664 676 q 623 626 629 642 q 607 582 617 610 l 397 -33 l 365 -33 q 164 596 213 449 q 127 660 147 646 q 69 674 107 674 z "},"w":{"ha":1065,"x_min":75,"x_max":1079,"o":"m 75 674 l 75 694 l 338 694 l 336 674 q 288 656 301 669 q 274 589 275 642 q 296 258 271 443 q 328 142 304 196 q 372 67 351 89 l 392 43 q 415 68 400 51 q 456 140 429 85 q 493 257 483 196 q 514 607 519 426 q 498 660 513 650 q 438 674 483 671 l 439 694 l 550 694 l 713 696 l 714 676 q 669 672 682 675 q 647 653 656 668 q 638 608 638 639 q 636 454 635 515 l 650 289 q 652 274 650 285 q 656 257 654 263 q 693 140 668 193 q 736 65 718 86 l 756 44 q 779 69 765 53 q 821 140 793 85 q 857 258 849 196 q 879 590 882 443 q 865 658 878 643 q 815 676 851 674 l 815 696 l 1079 697 l 1079 676 q 1023 660 1040 675 q 1004 597 1006 644 q 939 199 1000 360 q 874 90 919 149 q 794 -3 829 31 l 760 -37 q 746 -28 754 -35 q 713 0 738 -22 q 667 49 689 22 q 619 122 644 76 q 576 221 593 168 l 576 224 l 574 221 q 532 123 557 168 q 483 50 507 78 q 438 1 460 22 q 403 -28 415 -19 l 389 -36 q 349 -3 374 -24 q 276 81 325 18 q 210 201 228 143 q 150 594 154 376 q 131 658 149 642 q 75 674 114 674 z "},"x":{"ha":671,"x_min":31,"x_max":686,"o":"m 474 58 q 346 267 376 218 q 297 188 332 244 q 247 107 263 132 q 233 47 222 72 q 301 24 243 22 l 293 -4 q 47 -4 178 3 l 49 21 q 178 108 117 21 l 178 110 q 179 113 179 111 q 311 325 229 194 q 147 585 171 549 q 132 606 142 593 q 93 642 122 619 q 36 668 64 665 l 31 694 q 324 694 188 685 l 322 675 q 271 647 289 674 q 269 592 253 621 q 372 424 282 568 q 472 585 461 565 q 475 647 493 625 q 421 671 457 669 l 418 694 q 660 694 553 685 l 660 664 q 595 645 613 658 q 540 574 578 632 q 408 367 481 483 q 478 258 436 324 q 549 151 521 193 q 588 90 576 110 q 686 19 639 19 l 683 -7 q 510 0 590 0 l 508 0 q 414 -3 443 0 l 411 18 q 457 28 439 18 q 474 58 475 38 z "},"y":{"ha":638,"x_min":22,"x_max":651,"o":"m 290 363 q 140 588 231 449 q 125 609 135 596 q 86 645 115 622 q 29 671 57 668 l 22 696 q 317 696 158 688 l 314 676 q 263 649 282 676 q 261 594 244 622 q 364 429 301 525 q 413 506 376 449 q 465 588 449 563 q 468 650 486 628 q 413 674 450 672 l 411 697 q 651 697 544 688 l 651 667 q 588 649 604 661 q 533 576 572 636 q 451 452 504 531 q 393 367 397 374 q 389 94 390 186 q 397 33 388 47 q 449 18 407 19 l 450 -3 l 225 -1 l 225 17 q 278 34 267 19 q 289 96 289 49 q 290 363 290 185 z "},"z":{"ha":607,"x_min":64,"x_max":621,"o":"m 115 0 q 65 -1 83 0 l 64 21 q 128 99 76 29 q 208 222 136 111 q 354 445 281 332 q 451 596 428 558 q 453 619 463 615 q 408 622 443 622 l 407 622 l 388 622 l 236 621 q 191 597 208 618 q 171 557 174 576 l 168 538 l 142 536 q 156 608 150 568 q 164 672 161 647 l 165 696 q 354 695 228 696 q 543 694 481 694 l 621 694 l 621 675 q 247 118 593 661 q 254 91 239 97 q 322 85 269 85 q 440 85 388 83 q 483 102 469 86 q 519 168 497 118 q 525 179 524 175 l 550 181 q 528 94 538 139 q 517 25 519 49 l 514 0 l 115 0 z "},"{":{"ha":565,"x_min":200,"x_max":581,"o":"m 578 1040 l 576 1017 q 544 1008 564 1014 q 486 974 525 1001 q 435 910 447 946 q 439 750 415 860 q 450 603 463 640 q 380 484 429 532 q 292 422 331 436 l 254 410 q 251 408 253 408 l 256 408 q 272 403 261 407 q 310 385 282 400 q 363 351 339 371 q 413 296 388 332 q 453 215 439 260 q 441 67 464 176 q 436 -93 418 -43 q 485 -156 449 -129 q 550 -192 521 -183 l 579 -200 l 581 -222 q 431 -164 497 -215 q 338 -40 365 -112 q 338 140 315 15 q 350 293 360 264 q 303 351 340 325 q 233 386 265 376 l 200 396 l 201 422 q 215 426 207 424 q 247 438 224 429 q 288 458 269 447 q 324 486 306 468 q 349 524 343 504 q 335 677 357 551 q 336 857 313 803 q 429 982 364 931 q 578 1040 494 1033 z "},"|":{"ha":179,"x_min":93,"x_max":193,"o":"m 192 1026 l 192 1022 l 192 1013 l 192 975 l 192 839 q 193 428 192 653 l 193 17 l 193 -119 l 193 -157 l 193 -167 l 193 -171 l 94 -171 l 94 -167 l 94 -157 l 94 -119 l 94 17 l 94 428 q 93 839 93 651 l 93 975 l 93 1013 l 93 1022 l 93 1026 l 192 1026 z "},"}":{"ha":499,"x_min":131,"x_max":513,"o":"m 136 -215 l 136 -193 q 149 -190 140 -192 q 178 -178 157 -187 q 217 -158 199 -169 q 253 -128 235 -147 q 279 -85 271 -108 q 274 75 297 -35 q 263 222 251 185 q 301 303 276 267 q 352 359 326 339 q 403 393 378 379 q 443 411 428 407 l 458 417 l 457 418 q 441 423 451 419 q 402 441 431 426 q 349 474 374 456 q 299 529 325 493 q 260 610 274 565 q 270 758 247 649 q 275 918 293 868 q 226 981 263 954 q 161 1017 190 1008 l 132 1025 l 131 1047 q 281 990 215 1040 q 374 865 346 939 q 374 686 396 811 q 363 532 353 561 q 410 476 372 501 q 481 439 447 450 l 513 429 l 511 404 q 476 393 497 400 q 414 360 454 386 q 364 301 374 333 q 367 208 356 274 q 388 86 379 142 q 378 -32 396 31 q 285 -156 350 -106 q 136 -215 219 -207 z "},"~":{"ha":668,"x_min":44,"x_max":682,"o":"m 49 336 l 44 369 q 221 449 119 432 q 330 441 267 457 q 445 406 393 425 q 563 378 497 386 q 679 392 629 369 l 682 354 q 603 314 640 329 q 528 297 567 299 q 465 294 489 294 q 398 308 442 294 q 337 329 354 322 q 267 358 319 336 q 49 336 164 400 z "},"":{"ha":864,"x_min":51,"x_max":878,"o":"m 325 588 q 601 589 510 588 q 600 601 601 597 q 596 628 599 611 q 546 777 578 710 q 490 871 514 844 l 467 897 q 465 896 467 896 q 328 606 356 778 q 326 597 328 603 q 325 588 325 590 m 878 32 l 878 -1 l 538 -1 l 540 31 q 583 38 569 33 q 609 61 597 43 q 624 114 621 79 l 624 119 q 626 199 626 169 q 614 469 626 300 q 463 470 564 469 q 310 471 361 471 q 296 125 293 313 q 299 83 296 106 q 339 35 308 44 q 378 31 351 33 l 378 10 l 378 0 l 378 -1 l 313 0 l 51 0 l 53 26 q 119 51 101 28 q 139 146 138 75 q 226 681 149 485 q 229 686 226 683 q 284 803 251 749 q 345 892 317 858 q 403 954 374 926 q 449 992 433 982 q 472 1007 464 1003 l 474 1008 q 502 988 485 1001 q 566 922 519 975 q 647 804 613 869 q 713 668 692 733 q 786 147 768 486 q 813 58 790 82 q 878 32 836 33 m 551 1085 q 591 1116 579 1101 q 615 1163 603 1131 l 625 1164 q 641 1129 635 1140 q 659 1108 647 1118 q 690 1086 671 1097 l 690 1079 q 625 993 647 1054 l 614 993 q 593 1044 607 1025 q 551 1078 579 1063 l 551 1085 m 250 1086 q 290 1117 278 1103 q 314 1164 301 1132 l 325 1164 q 349 1117 339 1131 q 389 1088 360 1103 l 389 1081 q 325 994 344 1054 l 313 994 q 292 1045 306 1026 q 250 1079 278 1064 l 250 1086 z "},"":{"ha":671,"x_min":56,"x_max":685,"o":"m 58 28 q 138 55 117 29 q 158 147 158 81 l 160 879 q 150 930 160 910 q 126 958 140 950 q 99 970 113 967 q 75 972 85 974 l 65 972 l 64 1001 l 624 1001 q 658 772 633 872 l 619 772 q 618 784 619 776 q 611 812 617 792 q 596 848 606 832 q 567 877 586 864 q 522 892 547 890 l 307 896 l 304 610 l 597 607 l 594 500 l 301 501 q 301 179 300 283 q 357 121 303 122 q 458 121 414 119 q 522 122 501 122 q 562 129 546 122 q 594 158 578 136 q 618 197 610 181 q 647 257 626 213 l 685 260 q 654 133 667 199 q 638 33 642 68 l 633 -1 l 56 -3 l 58 28 m 154 1113 q 194 1142 182 1128 q 218 1190 206 1157 l 229 1190 q 253 1142 243 1157 q 293 1113 264 1128 l 293 1106 q 253 1072 267 1090 q 229 1021 240 1053 l 217 1019 q 196 1070 210 1051 q 154 1104 182 1089 l 154 1113 m 446 1114 q 485 1145 474 1131 q 510 1192 497 1160 l 521 1193 q 545 1144 535 1158 q 585 1115 556 1131 l 585 1108 q 521 1022 540 1082 l 508 1022 q 488 1073 501 1054 q 446 1107 474 1092 l 446 1114 z "},"":{"ha":386,"x_min":32,"x_max":400,"o":"m 143 142 l 144 871 q 123 945 144 918 q 46 975 101 972 l 47 1003 l 388 1003 l 389 974 q 311 944 333 972 q 288 865 289 915 l 289 153 q 314 60 292 89 q 389 31 336 32 l 392 -1 l 51 0 l 51 26 q 126 52 111 31 q 143 142 142 74 m 33 1114 q 72 1145 60 1131 q 96 1192 83 1160 l 107 1192 q 131 1144 121 1158 q 171 1115 142 1131 l 171 1108 q 107 1022 126 1082 l 94 1022 q 74 1073 88 1054 q 32 1107 60 1092 l 33 1114 m 263 1114 q 301 1145 289 1131 q 326 1192 314 1160 l 336 1192 q 361 1144 350 1158 q 400 1115 372 1131 l 400 1108 q 336 1022 356 1082 l 325 1022 q 261 1107 310 1081 l 263 1114 z "},"":{"ha":953,"x_min":82,"x_max":968,"o":"m 536 910 q 517 908 529 908 q 338 803 421 908 q 250 494 254 699 q 276 322 249 400 q 347 197 304 244 q 440 125 390 150 q 533 100 489 100 q 620 122 576 100 q 704 187 664 143 q 770 311 744 231 q 796 496 796 392 q 716 794 796 689 q 536 910 636 900 m 508 1018 q 518 1019 511 1018 q 529 1019 525 1019 q 858 877 750 1021 q 968 500 965 733 q 835 128 969 278 q 526 -19 701 -22 q 204 126 332 -18 q 82 513 76 269 q 108 690 85 606 q 179 849 132 775 q 311 969 226 924 q 508 1018 396 1015 m 225 1115 q 265 1147 253 1132 q 289 1193 276 1161 l 300 1193 q 324 1146 314 1160 q 364 1117 335 1132 l 364 1110 q 300 1024 319 1083 l 288 1024 q 267 1074 281 1056 q 225 1107 253 1093 l 225 1115 m 676 1114 q 715 1144 703 1129 q 740 1190 728 1158 l 750 1192 q 774 1144 763 1158 q 814 1114 786 1131 l 814 1107 q 750 1021 769 1081 l 739 1021 q 717 1072 731 1054 q 675 1106 704 1090 l 676 1114 z "},"":{"ha":924,"x_min":85,"x_max":938,"o":"m 936 968 q 867 942 886 967 q 847 844 849 917 q 757 293 839 499 l 756 292 q 756 288 756 289 q 697 161 731 221 q 631 65 663 101 q 570 2 599 29 q 525 -36 542 -25 l 508 -47 l 507 -46 q 324 167 403 24 q 256 307 276 240 q 179 843 197 499 q 153 935 176 910 q 86 963 129 961 l 85 997 l 436 997 l 433 964 q 371 944 390 960 q 347 878 351 929 l 347 872 q 345 832 346 860 q 344 790 344 804 q 371 375 347 567 q 374 361 372 369 q 375 347 375 353 q 404 247 386 294 q 440 168 422 199 q 473 115 457 138 q 499 81 489 92 l 508 71 q 510 72 510 71 q 551 119 529 92 q 606 219 572 147 q 653 371 640 292 q 685 867 690 606 q 683 910 685 899 q 642 960 675 949 q 601 964 626 961 l 601 986 l 601 994 l 601 997 q 635 996 613 997 q 668 994 657 994 q 803 995 714 994 q 938 996 892 996 l 936 968 m 621 1115 q 659 1147 647 1132 q 683 1193 671 1161 l 694 1193 q 719 1146 708 1160 q 758 1117 729 1132 l 758 1110 q 694 1024 714 1083 l 682 1024 q 661 1074 675 1056 q 619 1108 647 1093 l 621 1115 m 276 1115 q 315 1147 303 1132 q 340 1193 328 1161 l 350 1193 q 375 1146 364 1160 q 414 1117 386 1132 l 414 1110 q 350 1024 369 1083 l 339 1024 q 275 1107 324 1083 l 276 1115 z "},"":{"ha":664,"x_min":86,"x_max":679,"o":"m 274 354 l 488 354 q 479 431 486 394 q 476 450 479 436 q 441 556 464 508 q 401 622 418 604 l 385 642 l 383 642 q 285 433 306 564 q 274 354 276 383 m 679 22 l 679 -1 l 435 -1 l 436 21 q 468 27 458 24 q 486 43 478 31 q 497 81 494 56 l 497 85 q 498 113 497 93 q 499 142 499 132 q 493 281 499 214 l 267 281 q 263 89 260 192 q 264 58 263 67 q 293 24 269 32 q 306 23 296 24 q 321 22 315 22 l 321 6 l 321 0 l 319 0 l 319 -1 l 274 0 l 86 -1 l 88 18 q 135 35 122 18 q 149 104 147 53 q 211 488 156 344 q 213 489 211 489 l 214 492 q 388 722 265 635 l 389 722 q 409 708 396 718 q 455 660 422 699 q 513 576 488 622 q 560 478 544 526 q 614 106 600 347 q 632 41 615 58 q 679 22 649 24 m 438 856 q 476 885 464 871 q 500 933 488 900 l 511 933 q 535 886 525 900 q 575 857 546 872 l 575 849 q 511 764 532 825 l 499 764 q 436 847 485 821 l 438 856 m 179 860 q 218 890 206 875 q 243 936 231 904 l 253 938 q 277 890 265 904 q 317 860 289 876 l 317 853 q 253 768 272 825 l 242 767 q 221 817 235 799 q 178 851 207 836 l 179 860 z "},"":{"ha":517,"x_min":96,"x_max":532,"o":"m 143 857 q 182 887 169 872 q 207 933 194 901 l 217 935 q 241 888 229 901 q 281 857 253 874 l 281 850 q 241 816 254 835 q 217 765 228 797 l 206 764 q 142 849 190 822 l 143 857 m 97 18 q 152 37 138 19 q 167 101 167 54 l 168 608 q 151 658 168 642 q 119 672 135 674 l 103 672 l 101 693 l 489 693 q 513 533 496 603 l 486 533 q 483 555 486 542 q 463 592 481 568 q 418 617 446 615 l 269 619 l 268 421 l 471 419 l 469 344 l 267 347 q 265 124 265 194 q 304 83 267 83 l 418 83 q 446 88 435 83 q 469 108 457 92 q 485 135 481 125 q 506 178 490 144 l 532 179 q 510 92 519 138 q 499 22 501 47 l 496 -1 l 96 -3 l 97 18 m 379 853 q 419 883 407 868 q 443 929 431 897 l 454 931 q 478 883 468 897 q 518 853 489 868 l 518 846 q 478 812 492 831 q 454 761 465 793 l 442 760 q 421 810 435 792 q 379 844 407 829 l 379 853 z "},"":{"ha":438,"x_min":-33,"x_max":453,"o":"m 160 96 l 160 601 q 145 653 160 635 q 92 675 131 672 l 93 693 l 329 694 l 331 674 q 260 599 263 671 l 261 104 q 278 40 263 60 q 331 18 294 21 l 332 -3 l 96 -3 l 96 17 q 148 33 138 18 q 160 96 158 49 m 143 857 q 182 887 169 872 q 207 933 194 901 l 217 935 q 241 888 229 901 q 281 857 253 874 l 281 850 q 241 816 254 835 q 217 765 228 797 l 206 764 q 142 849 190 822 l 143 857 m -32 919 q 7 951 -6 936 q 32 997 19 965 l 42 997 q 67 950 56 964 q 106 921 78 936 l 106 914 q 42 828 61 888 l 31 828 q -33 913 15 886 l -32 919 m 314 922 q 353 953 342 939 q 378 1000 365 968 l 389 1000 q 413 953 403 967 q 453 924 424 939 l 453 915 q 389 831 410 892 l 376 831 q 314 914 363 890 l 314 922 z "},"":{"ha":679,"x_min":75,"x_max":693,"o":"m 392 635 q 385 634 390 635 q 378 633 381 633 q 253 561 311 635 q 192 344 194 488 q 255 143 190 218 q 390 69 319 68 q 516 138 458 69 q 574 346 574 207 q 517 555 574 481 q 392 635 461 629 m 372 710 q 388 711 378 711 q 617 612 542 713 q 693 349 692 511 q 601 90 694 194 q 385 -14 508 -15 q 160 87 249 -14 q 75 357 71 188 q 150 602 78 499 q 372 710 222 706 m 143 857 q 182 887 169 872 q 207 933 194 901 l 217 935 q 241 888 229 901 q 281 857 253 874 l 281 850 q 241 816 254 835 q 217 765 228 797 l 206 764 q 142 849 190 822 l 143 857 m 463 857 q 501 888 489 874 q 526 935 514 903 l 536 936 q 560 889 549 903 q 600 858 572 875 l 600 851 q 536 765 556 825 l 525 765 q 503 817 517 799 q 461 850 490 835 l 463 857 z "},"":{"ha":668,"x_min":83,"x_max":683,"o":"m 143 857 q 182 887 169 872 q 207 933 194 901 l 217 935 q 241 888 229 901 q 281 857 253 874 l 281 850 q 241 816 254 835 q 217 765 228 797 l 206 764 q 142 849 190 822 l 143 857 m 682 679 q 633 662 646 679 q 619 593 621 644 q 556 204 613 349 q 554 201 556 203 q 483 67 526 126 q 411 -14 440 8 l 382 -35 q 379 -33 381 -35 q 251 115 301 25 q 204 214 221 163 q 150 592 164 346 q 132 657 149 639 q 85 675 115 675 l 83 700 l 331 700 l 329 676 q 297 670 307 674 q 279 653 288 667 q 268 615 271 640 l 268 613 q 267 554 267 594 q 285 263 267 403 q 286 253 286 258 q 288 243 286 247 q 324 136 300 185 q 364 68 347 88 l 382 49 l 382 50 q 482 260 461 129 q 506 608 508 419 q 504 639 506 631 q 475 674 497 665 q 461 676 471 675 q 446 676 451 676 l 446 692 l 446 699 l 447 699 l 447 700 l 493 699 l 683 699 l 682 679 m 485 857 q 524 888 513 874 q 549 935 536 903 l 558 936 q 584 888 574 901 q 622 858 594 874 l 622 851 q 558 765 581 826 l 547 765 q 526 816 540 797 q 485 850 513 835 l 485 857 z "},"":{"ha":301,"x_min":44,"x_max":315,"o":"m 199 960 q 244 679 236 751 q 247 663 244 676 q 249 645 249 649 q 252 630 250 642 q 256 615 254 618 q 262 602 258 611 q 270 590 265 593 q 281 583 275 588 q 296 576 288 578 q 315 572 304 574 l 315 542 l 46 542 l 44 572 q 71 577 60 572 q 88 588 82 582 q 100 607 94 593 q 107 627 106 621 q 112 654 108 633 q 117 682 115 675 l 167 961 l 199 960 z "},"":{"ha":278,"x_min":21,"x_max":293,"o":"m 142 547 q 93 828 103 756 q 91 843 93 831 q 89 859 89 856 q 87 873 89 863 q 83 888 85 883 q 78 900 82 892 q 72 913 75 908 q 63 922 68 917 q 52 931 58 928 q 38 935 46 933 q 21 939 31 938 l 22 965 l 292 967 l 293 936 q 270 933 281 936 q 253 923 260 931 q 242 910 246 915 q 234 892 238 906 q 229 874 231 879 q 226 851 228 868 q 222 826 224 833 l 172 546 l 142 547 z "},"":{"ha":597,"x_min":44,"x_max":613,"o":"m 199 960 q 244 679 236 751 q 247 663 244 676 q 249 645 249 649 q 252 630 250 642 q 256 615 254 618 q 262 602 258 611 q 270 590 265 593 q 281 583 275 588 q 296 576 288 578 q 315 572 304 574 l 315 542 l 46 542 l 44 572 q 71 577 60 572 q 88 588 82 582 q 100 607 94 593 q 107 627 106 621 q 112 654 108 633 q 117 682 115 675 l 167 961 l 199 960 m 493 961 q 540 681 531 751 q 542 665 540 678 q 544 649 544 653 q 547 635 544 646 q 550 619 549 624 q 555 607 551 615 q 562 595 558 599 q 570 585 565 592 q 581 577 575 579 q 595 572 588 575 q 613 569 603 569 l 611 542 l 342 543 l 340 572 q 363 575 353 572 q 381 585 374 578 q 392 598 388 593 q 399 616 396 603 q 404 635 403 629 q 408 659 406 642 q 411 683 410 676 l 463 963 l 493 961 z "},"":{"ha":574,"x_min":21,"x_max":589,"o":"m 142 547 q 93 828 103 756 q 91 843 93 831 q 89 859 89 856 q 87 873 89 863 q 83 888 85 883 q 78 900 82 892 q 72 913 75 908 q 63 922 68 917 q 52 931 58 928 q 38 935 46 933 q 21 939 31 938 l 22 965 l 292 967 l 293 936 q 270 933 281 936 q 253 923 260 931 q 242 910 246 915 q 234 892 238 906 q 229 874 231 879 q 226 851 228 868 q 222 826 224 833 l 172 546 l 142 547 m 436 549 q 389 831 403 758 q 385 855 388 836 q 380 881 382 874 q 373 901 378 888 q 362 919 368 914 q 344 929 356 924 q 318 936 333 935 l 318 968 l 588 968 l 589 939 q 563 933 574 939 q 544 923 551 928 q 533 903 538 918 q 526 883 528 889 q 522 856 525 878 q 518 828 519 833 l 468 549 l 436 549 z "},"":{"ha":708,"x_min":36,"x_max":722,"o":"m 639 728 q 638 750 639 736 q 625 799 636 764 q 594 858 614 833 q 532 898 575 882 q 429 906 489 914 q 306 828 360 896 q 226 663 253 761 l 722 664 l 722 583 q 467 584 638 583 q 211 585 297 585 q 207 515 207 551 l 207 513 q 697 514 371 514 l 697 436 q 213 438 536 438 q 294 203 229 304 q 453 94 358 103 q 534 112 497 90 q 590 167 571 133 q 622 236 610 201 q 639 296 635 271 l 643 321 l 681 318 l 690 93 q 644 61 678 86 q 582 19 610 36 q 503 -11 554 1 q 393 -18 451 -24 q 140 144 246 -3 q 36 513 33 292 q 140 854 39 707 q 386 1018 240 1001 q 497 1015 447 1025 q 574 990 547 1006 q 633 958 600 975 q 693 938 665 942 l 674 729 l 639 728 z "},"":{"ha":1389,"x_min":0,"x_max":0,"o":""},"":{"ha":417,"x_min":0,"x_max":0,"o":""}}}
